<svg width="119" height="110" viewBox="0 0 119 110" fill="none" xmlns="http://www.w3.org/2000/svg">
<path d="M104.307 49.3057C99.1877 49.3057 94.9633 45.4742 94.4979 40.3537C94.4621 40.0314 94.3188 39.7092 94.0324 39.4943C93.8176 39.3153 93.5312 39.2079 93.2448 39.2079C93.209 39.2079 93.1732 39.2079 93.1374 39.2079C92.8152 39.2437 92.4572 39.2437 92.135 39.2437C88.5191 39.2437 85.2255 37.2742 83.507 34.1231C83.328 33.8009 83.0058 33.5502 82.6478 33.4786C82.5762 33.4786 82.5046 33.4428 82.3972 33.4428C82.1108 33.4428 81.8244 33.5502 81.6096 33.7292C79.8554 35.1974 77.5999 35.9851 75.3087 35.9851C69.867 35.9851 65.4635 31.5808 65.4635 26.138C65.4635 20.6952 69.9028 16.3624 75.3087 16.3624C75.8815 16.3624 76.4185 16.3982 76.9913 16.5057C77.0629 16.5057 77.1345 16.5415 77.2061 16.5415C77.5283 16.5415 77.8505 16.4341 78.0653 16.1834C78.3517 15.8969 78.4949 15.503 78.4233 15.1092C78.3517 14.6437 78.3159 14.1423 78.3159 13.6768C78.3159 8.23405 82.7194 3.82968 88.1611 3.82968C93.6028 3.82968 98.0063 8.23405 98.0063 13.6768C98.0063 13.8917 98.0063 14.1423 97.9705 14.4288C97.9347 14.9659 98.2211 15.4672 98.7223 15.6821C98.8655 15.7537 99.0445 15.7895 99.2235 15.7895C99.5815 15.7895 99.9038 15.6463 100.154 15.3598C102.016 13.283 104.701 12.0655 107.493 12.0655C112.935 12.0655 117.339 16.4699 117.339 21.9127C117.339 25.7083 115.226 29.0742 111.825 30.7572C111.467 30.9362 111.217 31.2585 111.145 31.6524C111.074 32.0463 111.181 32.4402 111.467 32.7266C113.186 34.5528 114.117 36.952 114.117 39.4585C114.152 44.9013 109.749 49.3057 104.307 49.3057Z" fill="#2E1B10"/>
<path d="M88.1969 5.08297C92.9226 5.08297 96.7891 8.95021 96.7891 13.6769C96.7891 13.8559 96.7891 14.0707 96.7533 14.3214C96.6817 15.3956 97.2903 16.3982 98.2569 16.8279C98.5791 16.9712 98.9013 17.0428 99.2235 17.0428C99.9037 17.0428 100.62 16.7563 101.085 16.2192C102.732 14.393 105.059 13.3546 107.493 13.3546C112.219 13.3546 116.086 17.2218 116.086 21.9485C116.086 25.2428 114.224 28.2148 111.288 29.683C110.572 30.041 110.071 30.6856 109.928 31.4734C109.785 32.2611 110.035 33.0489 110.572 33.6218C112.076 35.2332 112.899 37.31 112.899 39.4943C112.899 44.221 109.033 48.0882 104.307 48.0882C99.8321 48.0882 96.1447 44.7223 95.7509 40.2821C95.6793 39.6017 95.357 38.993 94.8558 38.5633C94.3904 38.2052 93.8534 37.9904 93.2448 37.9904C93.1732 37.9904 93.0658 37.9904 92.9942 37.9904C92.7078 38.0262 92.4214 38.0262 92.135 38.0262C88.9845 38.0262 86.0847 36.3074 84.581 33.5502C84.223 32.9057 83.5786 32.4402 82.8626 32.2969C82.7194 32.2611 82.5404 32.2611 82.3972 32.2611C81.8244 32.2611 81.2516 32.476 80.7862 32.8341C79.2467 34.1231 77.3135 34.8035 75.3087 34.8035C70.583 34.8035 66.7165 30.9362 66.7165 26.2096C66.7165 21.483 70.583 17.6157 75.3087 17.6157C75.8099 17.6157 76.2753 17.6515 76.7765 17.7589C76.9197 17.7948 77.0629 17.7948 77.2061 17.7948C77.8505 17.7948 78.4949 17.5441 78.9603 17.0786C79.5331 16.5057 79.8195 15.7179 79.6763 14.9301C79.6047 14.5004 79.5689 14.1065 79.5689 13.6769C79.6047 8.95021 83.4712 5.08297 88.1969 5.08297ZM88.1969 2.57642C82.075 2.57642 77.0987 7.55371 77.0987 13.6769C77.0987 14.214 77.1345 14.7511 77.2061 15.2882C76.5975 15.1808 75.9531 15.1092 75.3087 15.1092C69.1867 15.1092 64.2104 20.0865 64.2104 26.2096C64.2104 32.3327 69.1867 37.31 75.3087 37.31C77.9937 37.31 80.464 36.3432 82.3972 34.7677C84.2946 38.2052 87.9463 40.5327 92.135 40.5327C92.5288 40.5327 92.8868 40.4969 93.2448 40.4611C93.746 46.1188 98.5075 50.5589 104.307 50.5589C110.429 50.5589 115.405 45.5817 115.405 39.4585C115.405 36.5223 114.26 33.8725 112.398 31.8672C116.086 30.0769 118.627 26.2812 118.627 21.9127C118.627 15.7895 113.651 10.8122 107.529 10.8122C104.236 10.8122 101.3 12.2445 99.2593 14.5004C99.2951 14.214 99.2951 13.9633 99.2951 13.6769C99.2951 7.55371 94.3188 2.57642 88.1969 2.57642Z" fill="black"/>
<path d="M17.6696 50.3799C12.2279 50.3799 7.82442 45.9755 7.82442 40.5328C7.82442 38.5275 8.43303 36.6297 9.54286 34.9825C9.75766 34.6603 9.82926 34.2306 9.68606 33.8725C9.54286 33.5144 9.25645 33.1921 8.89844 33.0847C4.81717 31.7598 2.09631 28 2.09631 23.7031C2.09631 18.2961 6.5356 13.8559 11.9415 13.8559C13.1945 13.8559 14.4117 14.1066 15.5574 14.5362C15.7006 14.6079 15.8796 14.6079 16.0228 14.6079C16.3092 14.6079 16.5956 14.5004 16.8104 14.3214C17.1684 14.0349 17.3474 13.5694 17.2758 13.1397C17.1684 12.6026 17.1326 12.0297 17.1326 11.4926C17.1326 6.04978 21.5361 1.64542 26.9778 1.64542C31.7393 1.64542 35.8206 5.04716 36.6798 9.73799C36.7514 10.0961 36.9662 10.4183 37.2526 10.5974C37.4316 10.7048 37.6822 10.7764 37.897 10.7764C38.0402 10.7764 38.1476 10.7406 38.2908 10.7048C39.2574 10.3825 40.2956 10.2393 41.2981 10.2393C46.7398 10.2393 51.1432 14.6437 51.1432 20.0865C51.1432 25.5293 46.7398 29.9694 41.2981 29.9694C40.9401 29.9694 40.5462 29.9336 40.1524 29.8978C40.1166 29.8978 40.045 29.8978 40.0092 29.8978C39.4006 29.8978 38.8994 30.3275 38.792 30.9362C37.897 35.5913 33.8515 38.9572 29.1258 38.9572C29.0542 38.9572 28.9468 38.9572 28.8752 38.9572H28.7678C28.4456 38.9572 28.1234 39.1004 27.8728 39.3153C27.6222 39.5659 27.479 39.8882 27.5148 40.2463V40.3179C27.5148 40.3895 27.5148 40.4969 27.5148 40.5686C27.5148 45.9755 23.1113 50.3799 17.6696 50.3799Z" fill="#2E1B10"/>
<path d="M26.9778 2.9345C31.1306 2.9345 34.7107 5.90655 35.4267 9.98865C35.5699 10.7048 35.9995 11.3135 36.6081 11.7074C37.0019 11.9581 37.4316 12.0655 37.897 12.0655C38.1476 12.0655 38.3982 12.0297 38.6488 11.9581C39.508 11.6716 40.403 11.5284 41.298 11.5284C46.0237 11.5284 49.8902 15.3956 49.8902 20.1223C49.8902 24.8489 46.0237 28.7162 41.298 28.7162C40.9758 28.7162 40.6536 28.6804 40.2956 28.6445C40.1882 28.6445 40.1166 28.6445 40.0092 28.6445C38.8278 28.6445 37.7896 29.5039 37.539 30.6856C36.7871 34.7319 33.2071 37.6681 29.09 37.6681C29.0184 37.6681 28.9468 37.6681 28.8752 37.6681H28.8036C28.7678 37.6681 28.732 37.6681 28.732 37.6681C28.0518 37.6681 27.4432 37.9188 26.9778 38.4201C26.4766 38.9214 26.2259 39.5659 26.2617 40.2821V40.3537C26.2617 40.4253 26.2617 40.4969 26.2617 40.5686C26.2617 45.2952 22.3953 49.1625 17.6696 49.1625C12.9439 49.1625 9.07742 45.2952 9.07742 40.5686C9.07742 38.814 9.61443 37.131 10.581 35.6987C11.0107 35.0542 11.1539 34.2306 10.9033 33.4786C10.6526 32.7266 10.044 32.1537 9.29222 31.9031C5.74795 30.7572 3.34931 27.4629 3.34931 23.7389C3.34931 19.0122 7.21578 15.145 11.9415 15.145C13.0155 15.145 14.0895 15.3598 15.1277 15.7537C15.4141 15.8611 15.7363 15.9328 16.0586 15.9328C16.6314 15.9328 17.1684 15.7537 17.6338 15.3598C18.3498 14.7869 18.672 13.8917 18.5288 12.9965C18.4572 12.4952 18.4214 12.0297 18.4214 11.5642C18.3856 6.80175 22.2521 2.9345 26.9778 2.9345ZM26.9778 0.427948C20.8558 0.427948 15.8795 5.40524 15.8795 11.5284C15.8795 12.1729 15.9511 12.7817 16.0228 13.3904C14.7697 12.8891 13.3735 12.6026 11.9415 12.6026C5.81956 12.6026 0.843262 17.5799 0.843262 23.7031C0.843262 28.6445 4.06532 32.7983 8.50461 34.2664C7.28738 36.0568 6.57137 38.2052 6.57137 40.5328C6.57137 46.6559 11.5477 51.6332 17.6696 51.6332C23.7915 51.6332 28.7678 46.6559 28.7678 40.5328C28.7678 40.4253 28.7678 40.2821 28.7678 40.1747C28.8752 40.1747 29.0184 40.1747 29.1258 40.1747C34.5317 40.1747 39.0426 36.2716 40.045 31.1511C40.4746 31.1869 40.8684 31.2227 41.298 31.2227C47.4199 31.2227 52.3962 26.2454 52.3962 20.1223C52.3962 13.9991 47.4199 9.02184 41.298 9.02184C40.1166 9.02184 38.971 9.20087 37.897 9.55895C36.9662 4.36681 32.4553 0.427948 26.9778 0.427948Z" fill="black"/>
<path d="M16.2375 104.629C11.5476 104.629 9.07739 95.3546 9.07739 86.1878C9.07739 77.0209 11.5476 67.7467 16.2375 67.7467C20.9274 67.7467 23.3977 77.0209 23.3977 86.1878C23.3977 95.3546 20.9274 104.629 16.2375 104.629ZM16.2375 70.2533C14.3401 70.2533 11.5834 76.448 11.5834 86.1878C11.5834 95.9275 14.3401 102.122 16.2375 102.122C18.135 102.122 20.8916 95.9275 20.8916 86.1878C20.8916 76.4838 18.135 70.2533 16.2375 70.2533Z" fill="#CF7E00"/>
<path d="M105.023 104.629C100.333 104.629 97.863 95.3546 97.863 86.1878C97.863 77.0209 100.333 67.7467 105.023 67.7467C109.713 67.7467 112.183 77.0209 112.183 86.1878C112.183 95.3546 109.713 104.629 105.023 104.629ZM105.023 70.2533C103.126 70.2533 100.369 76.448 100.369 86.1878C100.369 95.9275 103.126 102.122 105.023 102.122C106.921 102.122 109.677 95.9275 109.677 86.1878C109.677 76.4838 106.921 70.2533 105.023 70.2533Z" fill="#CF7E00"/>
<path d="M61 109C84.7482 109 104 89.7482 104 66C104 42.2518 84.7482 23 61 23C37.2518 23 18 42.2518 18 66C18 89.7482 37.2518 109 61 109Z" fill="#A67C52"/>
<mask id="mask0" mask-type="alpha" maskUnits="userSpaceOnUse" x="18" y="23" width="86" height="86">
<path d="M61 109C84.7482 109 104 89.7482 104 66C104 42.2518 84.7482 23 61 23C37.2518 23 18 42.2518 18 66C18 89.7482 37.2518 109 61 109Z" fill="#A67C52"/>
</mask>
<g mask="url(#mask0)">
<path d="M123.517 41.6927C129.644 24.0377 116.485 3.43315 94.1266 -4.32891C71.7681 -12.091 48.6763 -4.07117 42.5496 13.5838C36.4229 31.2388 49.5813 51.8434 71.9398 59.6054C94.2983 67.3675 117.39 59.3477 123.517 41.6927Z" fill="#2E1B10"/>
<path d="M41.119 13.6052C43.5534 6.5869 48.6729 1.07249 55.3677 -2.5083C44.6275 -14.6472 22.9681 -16.6524 3.63569 -6.41136C-18.1311 5.11878 -28.6923 27.8926 -19.9212 44.4C-11.15 60.9074 13.5883 64.9179 35.3551 53.3878C40.1524 50.8454 44.4127 47.7659 48.0285 44.2926C40.5104 35.1258 37.5747 23.8821 41.119 13.6052Z" fill="#2E1B10"/>
</g>
<path d="M60.8094 25.8515C71.5496 25.8515 81.6812 30.0411 89.271 37.6681C96.8607 45.2952 101.085 55.393 101.085 66.1354C101.085 76.8777 96.8965 87.0114 89.271 94.6026C81.6454 102.194 71.5496 106.419 60.8094 106.419C50.0692 106.419 39.9376 102.23 32.3479 94.6026C24.7582 86.9756 20.5337 76.8777 20.5337 66.1354C20.5337 55.393 24.7224 45.2594 32.3479 37.6681C39.9734 30.0769 50.0692 25.8515 60.8094 25.8515ZM60.8094 22.2708C36.5724 22.2708 16.9536 41.8935 16.9536 66.1354C16.9536 90.3773 36.5724 110 60.8094 110C85.0465 110 104.665 90.3773 104.665 66.1354C104.665 41.8935 85.0465 22.2708 60.8094 22.2708Z" fill="black"/>
<path d="M52.0382 72.5808C51.5012 72.5808 51 72.2227 50.821 71.6856C50.7494 71.5066 49.3532 67.2096 43.6251 67.2096C37.6106 67.2096 36.465 71.4349 36.4292 71.614C36.2502 72.2943 35.5699 72.6882 34.9255 72.545C34.2453 72.3659 33.8515 71.7214 33.9947 71.0411C34.4959 68.8568 37.181 64.7031 43.6251 64.7031C49.747 64.7031 52.5753 68.7852 53.2555 70.9694C53.4703 71.6498 53.0765 72.3301 52.4321 72.545C52.2889 72.5808 52.1815 72.5808 52.0382 72.5808Z" fill="black"/>
<path d="M85.691 72.5808C85.154 72.5808 84.6527 72.2227 84.4737 71.6856C84.4021 71.5066 83.0059 67.2096 77.2778 67.2096C71.2633 67.2096 70.1177 71.4349 70.0819 71.614C69.9029 72.2943 69.2227 72.6882 68.5782 72.545C67.898 72.3659 67.5042 71.7214 67.6474 71.0411C68.1486 68.8568 70.8337 64.7031 77.2778 64.7031C83.3997 64.7031 86.228 68.7852 86.9082 70.9694C87.123 71.6498 86.7292 72.3301 86.0848 72.545C85.9416 72.5808 85.8342 72.5808 85.691 72.5808Z" fill="black"/>
<path d="M60.8094 87.4411C53.6851 87.4411 47.2768 86.5101 42.7301 85.0419C42.7301 85.0777 42.7301 85.1136 42.7301 85.1136C42.7301 91.5232 50.8211 96.7511 60.8094 96.7511C70.7978 96.7511 78.8888 91.5232 78.8888 85.1136C78.8888 85.0777 78.8888 85.0419 78.8888 85.0419C74.3421 86.5101 67.9338 87.4411 60.8094 87.4411Z" fill="white"/>
</svg>
