<svg width="330" height="307" viewBox="0 0 330 307" fill="none" xmlns="http://www.w3.org/2000/svg">
<path d="M289.6 137C275.3 137 263.5 126.3 262.2 112C262.1 111.1 261.7 110.2 260.9 109.6C260.3 109.1 259.5 108.8 258.7 108.8C258.6 108.8 258.5 108.8 258.4 108.8C257.5 108.9 256.5 108.9 255.6 108.9C245.5 108.9 236.3 103.4 231.5 94.6C231 93.7 230.1 93 229.1 92.8C228.9 92.8 228.7 92.7 228.4 92.7C227.6 92.7 226.8 93 226.2 93.5C221.3 97.6 215 99.8 208.6 99.8C193.4 99.8 181.1 87.5 181.1 72.3C181.1 57.1 193.5 45 208.6 45C210.2 45 211.7 45.1 213.3 45.4C213.5 45.4 213.7 45.5 213.9 45.5C214.8 45.5 215.7 45.2 216.3 44.5C217.1 43.7 217.5 42.6 217.3 41.5C217.1 40.2 217 38.8 217 37.5C217 22.3 229.3 10 244.5 10C259.7 10 272 22.3 272 37.5C272 38.1 272 38.8 271.9 39.6C271.8 41.1 272.6 42.5 274 43.1C274.4 43.3 274.9 43.4 275.4 43.4C276.4 43.4 277.3 43 278 42.2C283.2 36.4 290.7 33 298.5 33C313.7 33 326 45.3 326 60.5C326 71.1 320.1 80.5 310.6 85.2C309.6 85.7 308.9 86.6 308.7 87.7C308.5 88.8 308.8 89.9 309.6 90.7C314.4 95.8 317 102.5 317 109.5C317.1 124.7 304.8 137 289.6 137Z" fill="#1F1F1F"/>
<path d="M244.6 13.5C257.8 13.5 268.6 24.3 268.6 37.5C268.6 38 268.6 38.6 268.5 39.3C268.3 42.3 270 45.1 272.7 46.3C273.6 46.7 274.5 46.9 275.4 46.9C277.3 46.9 279.3 46.1 280.6 44.6C285.2 39.5 291.7 36.6 298.5 36.6C311.7 36.6 322.5 47.4 322.5 60.6C322.5 69.8 317.3 78.1 309.1 82.2C307.1 83.2 305.7 85 305.3 87.2C304.9 89.4 305.6 91.6 307.1 93.2C311.3 97.7 313.6 103.5 313.6 109.6C313.6 122.8 302.8 133.6 289.6 133.6C277.1 133.6 266.8 124.2 265.7 111.8C265.5 109.9 264.6 108.2 263.2 107C261.9 106 260.4 105.4 258.7 105.4C258.5 105.4 258.2 105.4 258 105.4C257.2 105.5 256.4 105.5 255.6 105.5C246.8 105.5 238.7 100.7 234.5 93C233.5 91.2 231.7 89.9 229.7 89.5C229.3 89.4 228.8 89.4 228.4 89.4C226.8 89.4 225.2 90 223.9 91C219.6 94.6 214.2 96.5 208.6 96.5C195.4 96.5 184.6 85.7 184.6 72.5C184.6 59.3 195.4 48.5 208.6 48.5C210 48.5 211.3 48.6 212.7 48.9C213.1 49 213.5 49 213.9 49C215.7 49 217.5 48.3 218.8 47C220.4 45.4 221.2 43.2 220.8 41C220.6 39.8 220.5 38.7 220.5 37.5C220.6 24.3 231.4 13.5 244.6 13.5ZM244.6 6.5C227.5 6.5 213.6 20.4 213.6 37.5C213.6 39 213.7 40.5 213.9 42C212.2 41.7 210.4 41.5 208.6 41.5C191.5 41.5 177.6 55.4 177.6 72.5C177.6 89.6 191.5 103.5 208.6 103.5C216.1 103.5 223 100.8 228.4 96.4C233.7 106 243.9 112.5 255.6 112.5C256.7 112.5 257.7 112.4 258.7 112.3C260.1 128.1 273.4 140.5 289.6 140.5C306.7 140.5 320.6 126.6 320.6 109.5C320.6 101.3 317.4 93.9 312.2 88.3C322.5 83.3 329.6 72.7 329.6 60.5C329.6 43.4 315.7 29.5 298.6 29.5C289.4 29.5 281.2 33.5 275.5 39.8C275.6 39 275.6 38.3 275.6 37.5C275.6 20.4 261.7 6.5 244.6 6.5Z" fill="black"/>
<path d="M47.6 140C32.4 140 20.1 127.7 20.1 112.5C20.1 106.9 21.8 101.6 24.9 97C25.5 96.1 25.7 94.9 25.3 93.9C24.9 92.9 24.1 92 23.1 91.7C11.7 88 4.09998 77.5 4.09998 65.5C4.09998 50.4 16.5 38 31.6 38C35.1 38 38.5 38.7 41.7 39.9C42.1 40.1 42.6 40.1 43 40.1C43.8 40.1 44.6 39.8 45.2 39.3C46.2 38.5 46.7 37.2 46.5 36C46.2 34.5 46.1 32.9 46.1 31.4C46.1 16.2 58.4 3.90002 73.6 3.90002C86.9 3.90002 98.3 13.4 100.7 26.5C100.9 27.5 101.5 28.4 102.3 28.9C102.8 29.2 103.5 29.4 104.1 29.4C104.5 29.4 104.8 29.3 105.2 29.2C107.9 28.3 110.8 27.9 113.6 27.9C128.8 27.9 141.1 40.2 141.1 55.4C141.1 70.6 128.8 83 113.6 83C112.6 83 111.5 82.9 110.4 82.8C110.3 82.8 110.1 82.8 110 82.8C108.3 82.8 106.9 84 106.6 85.7C104.1 98.7 92.8 108.1 79.6 108.1C79.4 108.1 79.1 108.1 78.9 108.1H78.6C77.7 108.1 76.8 108.5 76.1 109.1C75.4 109.8 75 110.7 75.1 111.7V111.9C75.1 112.1 75.1 112.4 75.1 112.6C75.1 127.7 62.8 140 47.6 140Z" fill="#1F1F1F"/>
<path d="M73.6 7.5C85.2 7.5 95.2 15.8 97.2 27.2C97.6 29.2 98.8 30.9 100.5 32C101.6 32.7 102.8 33 104.1 33C104.8 33 105.5 32.9 106.2 32.7C108.6 31.9 111.1 31.5 113.6 31.5C126.8 31.5 137.6 42.3 137.6 55.5C137.6 68.7 126.8 79.5 113.6 79.5C112.7 79.5 111.8 79.4 110.8 79.3C110.5 79.3 110.3 79.3 110 79.3C106.7 79.3 103.8 81.7 103.1 85C101 96.3 91 104.5 79.5 104.5C79.3 104.5 79.1 104.5 78.9 104.5H78.7C78.6 104.5 78.5 104.5 78.5 104.5C76.6 104.5 74.9 105.2 73.6 106.6C72.2 108 71.5 109.8 71.6 111.8V112C71.6 112.2 71.6 112.4 71.6 112.6C71.6 125.8 60.8 136.6 47.6 136.6C34.4 136.6 23.6 125.8 23.6 112.6C23.6 107.7 25.1 103 27.8 99C29 97.2 29.4 94.9 28.7 92.8C28 90.7 26.3 89.1 24.2 88.4C14.3 85.2 7.59998 76 7.59998 65.6C7.59998 52.4 18.4 41.6 31.6 41.6C34.6 41.6 37.6 42.2 40.5 43.3C41.3 43.6 42.2 43.8 43.1 43.8C44.7 43.8 46.2 43.3 47.5 42.2C49.5 40.6 50.4 38.1 50 35.6C49.8 34.2 49.7 32.9 49.7 31.6C49.6 18.3 60.4 7.5 73.6 7.5ZM73.6 0.5C56.5 0.5 42.6 14.4 42.6 31.5C42.6 33.3 42.8 35 43 36.7C39.5 35.3 35.6 34.5 31.6 34.5C14.5 34.5 0.599976 48.4 0.599976 65.5C0.599976 79.3 9.59998 90.9 22 95C18.6 100 16.6 106 16.6 112.5C16.6 129.6 30.5 143.5 47.6 143.5C64.7 143.5 78.6 129.6 78.6 112.5C78.6 112.2 78.6 111.8 78.6 111.5C78.9 111.5 79.3 111.5 79.6 111.5C94.7 111.5 107.3 100.6 110.1 86.3C111.3 86.4 112.4 86.5 113.6 86.5C130.7 86.5 144.6 72.6 144.6 55.5C144.6 38.4 130.7 24.5 113.6 24.5C110.3 24.5 107.1 25 104.1 26C101.5 11.5 88.9 0.5 73.6 0.5Z" fill="black"/>
<path d="M43.6 291.5C30.5 291.5 23.6 265.6 23.6 240C23.6 214.4 30.5 188.5 43.6 188.5C56.7 188.5 63.6 214.4 63.6 240C63.6 265.6 56.7 291.5 43.6 291.5ZM43.6 195.5C38.3 195.5 30.6 212.8 30.6 240C30.6 267.2 38.3 284.5 43.6 284.5C48.9 284.5 56.6 267.2 56.6 240C56.6 212.9 48.9 195.5 43.6 195.5Z" fill="#888888"/>
<path d="M291.6 291.5C278.5 291.5 271.6 265.6 271.6 240C271.6 214.4 278.5 188.5 291.6 188.5C304.7 188.5 311.6 214.4 311.6 240C311.6 265.6 304.7 291.5 291.6 291.5ZM291.6 195.5C286.3 195.5 278.6 212.8 278.6 240C278.6 267.2 286.3 284.5 291.6 284.5C296.9 284.5 304.6 267.2 304.6 240C304.6 212.9 296.9 195.5 291.6 195.5Z" fill="#888888"/>
<path d="M168.1 299.5C231.889 299.5 283.6 247.789 283.6 184C283.6 120.211 231.889 68.5 168.1 68.5C104.311 68.5 52.6 120.211 52.6 184C52.6 247.789 104.311 299.5 168.1 299.5Z" fill="#848484"/>
<mask id="mask0" mask-type="alpha" maskUnits="userSpaceOnUse" x="52" y="68" width="232" height="232">
<path d="M168.1 299.5C231.889 299.5 283.6 247.789 283.6 184C283.6 120.211 231.889 68.5 168.1 68.5C104.311 68.5 52.6 120.211 52.6 184C52.6 247.789 104.311 299.5 168.1 299.5Z" fill="#848484"/>
</mask>
<g mask="url(#mask0)">
<path d="M343.257 115.739C360.371 66.4346 323.616 8.89256 261.163 -12.7844C198.71 -34.4614 134.209 -12.0646 117.096 37.2401C99.9826 86.5449 136.737 144.087 199.19 165.764C261.643 187.441 326.144 165.044 343.257 115.739Z" fill="#1F1F1F"/>
<path d="M113.1 37.3C119.9 17.7 134.2 2.29999 152.9 -7.70001C122.9 -41.6 62.4 -47.2 8.39997 -18.6C-52.4 13.6 -81.9 77.2 -57.4 123.3C-32.9 169.4 36.2 180.6 97 148.4C110.4 141.3 122.3 132.7 132.4 123C111.4 97.4 103.2 66 113.1 37.3Z" fill="#1F1F1F"/>
</g>
<path d="M168.1 71.5C198.1 71.5 226.4 83.2 247.6 104.5C268.8 125.8 280.6 154 280.6 184C280.6 214 268.9 242.3 247.6 263.5C226.3 284.7 198.1 296.5 168.1 296.5C138.1 296.5 109.8 284.8 88.6 263.5C67.4 242.2 55.6 214 55.6 184C55.6 154 67.3 125.7 88.6 104.5C109.9 83.3 138.1 71.5 168.1 71.5ZM168.1 61.5C100.4 61.5 45.6 116.3 45.6 184C45.6 251.7 100.4 306.5 168.1 306.5C235.8 306.5 290.6 251.7 290.6 184C290.6 116.3 235.8 61.5 168.1 61.5Z" fill="black"/>
<path d="M143.6 180C142.1 180 140.7 181 140.2 182.5C140 183 136.1 195 120.1 195C103.3 195 100.1 183.2 100 182.7C99.5 180.8 97.6 179.7 95.8 180.1C93.9 180.6 92.8 182.4 93.2 184.3C94.6 190.4 102.1 202 120.1 202C137.2 202 145.1 190.6 147 184.5C147.6 182.6 146.5 180.7 144.7 180.1C144.3 180.1 144 180 143.6 180Z" fill="black"/>
<path d="M237.6 180C236.1 180 234.7 181 234.2 182.5C234 183 230.1 195 214.1 195C197.3 195 194.1 183.2 194 182.7C193.5 180.8 191.6 179.7 189.8 180.1C187.9 180.6 186.8 182.4 187.2 184.3C188.6 190.4 196.1 202 214.1 202C231.2 202 239.1 190.6 241 184.5C241.6 182.6 240.5 180.7 238.7 180.1C238.3 180.1 238 180 237.6 180Z" fill="black"/>
<path d="M141.6 242C141 242 140.4 241.8 139.9 241.4C138.9 240.5 138.8 238.9 139.7 237.9C142.1 235.2 151.2 226.3 165.5 226.1C180.4 225.9 189.9 235.1 192.4 237.9C193.3 238.9 193.2 240.5 192.2 241.4C191.2 242.3 189.6 242.2 188.7 241.2C187.2 239.5 179 231 166.1 231C166 231 165.8 231 165.6 231C153.3 231.2 145.5 238.8 143.4 241.2C143 241.8 142.3 242 141.6 242Z" fill="black"/>
</svg>
